<svg t="1587039620040" class="icon" viewBox="0 0 1024 1024" version="1.1" xmlns="http://www.w3.org/2000/svg"  width="128" height="128"><path d="M978.189474 0H45.743158C20.513684 0 0 20.48 0 45.675789v932.547369c0 25.263158 20.513684 45.776842 45.743158 45.776842h932.513684a45.810526 45.810526 0 0 0 45.743158-45.776842V45.642105A45.911579 45.911579 0 0 0 978.189474 0z m-26.273685 311.848421v620.463158a26.644211 26.644211 0 0 1-26.610526 26.64421H98.593684a26.644211 26.644211 0 0 1-26.610526-26.64421V311.848421H951.915789z m0-220.126316v154.947369H72.016842v-154.947369c0-14.686316 11.924211-26.644211 26.610526-26.64421h826.711579c14.652632 0 26.576842 11.957895 26.576842 26.64421z" ></path><path d="M190.349474 544.842105h375.68a98.795789 98.795789 0 0 0 90.24 58.071579c39.174737 0 74.105263-22.635789 90.206315-58.071579h87.073685c17.92 0 32.538947-14.618947 32.538947-32.538947s-14.618947-32.538947-32.538947-32.538947h-81.145263a99.2 99.2 0 0 0-192.505264 0H190.349474a32.572632 32.572632 0 0 0 0 65.077894z m491.385263-11.789473a39.747368 39.747368 0 0 1-50.930526 0 39.073684 39.073684 0 0 1-10.543158-44.092632 38.736842 38.736842 0 0 1 36.008421-24.185263 38.669474 38.669474 0 0 1 38.80421 38.871579c0 11.250526-4.850526 21.962105-13.338947 29.406316zM190.349474 801.010526h87.107368a98.694737 98.694737 0 0 0 90.206316 58.071579 98.694737 98.694737 0 0 0 90.24-58.071579h375.646316c17.92 0 32.538947-14.618947 32.538947-32.538947s-14.618947-32.538947-32.538947-32.538947H463.932632c-10.88-43.991579-50.526316-75.351579-96.269474-75.351579s-85.389474 31.36-96.269474 75.351579H190.248421a32.505263 32.505263 0 0 0 0.101053 65.077894z m202.812631-11.823158a39.646316 39.646316 0 0 1-50.96421 0 39.107368 39.107368 0 0 1-10.543158-44.092631 38.736842 38.736842 0 0 1 36.008421-24.218948 38.669474 38.669474 0 0 1 38.837895 38.871579c0 11.317895-4.850526 22.029474-13.338948 29.44z" ></path></svg>
