<?xml version="1.0" standalone="no"?><!DOCTYPE svg PUBLIC "-//W3C//DTD SVG 1.1//EN" "http://www.w3.org/Graphics/SVG/1.1/DTD/svg11.dtd"><svg t="1588939635960" class="icon" viewBox="0 0 1024 1024" version="1.1" xmlns="http://www.w3.org/2000/svg" p-id="6479" xmlns:xlink="http://www.w3.org/1999/xlink" width="200" height="200"><defs><style type="text/css"></style></defs><path d="M32 1024C12.8 1024 0 1011.2 0 992l0-320C0 652.8 12.8 640 32 640S64 652.8 64 672l0 320C64 1011.2 51.2 1024 32 1024z" p-id="6480" fill="#707070"></path><path d="M480 1024C460.8 1024 448 1011.2 448 992L448 576c0-19.2 12.8-32 32-32S512 556.8 512 576l0 416C512 1011.2 499.2 1024 480 1024z" p-id="6481" fill="#707070"></path><path d="M288 1024C268.8 1024 256 1011.2 256 992L256 576c0-19.2 12.8-32 32-32S320 556.8 320 576l0 416C320 1011.2 307.2 1024 288 1024z" p-id="6482" fill="#707070"></path><path d="M736 1024c-19.2 0-32-12.8-32-32L704 576c0-19.2 12.8-32 32-32S768 556.8 768 576l0 416C768 1011.2 755.2 1024 736 1024z" p-id="6483" fill="#707070"></path><path d="M928 1024c-19.2 0-32-12.8-32-32L896 384c0-19.2 12.8-32 32-32S960 364.8 960 384l0 608C960 1011.2 947.2 1024 928 1024z" p-id="6484" fill="#707070"></path><path d="M32 480C12.8 480 0 460.8 0 448s12.8-32 32-32c364.8 0 716.8-153.6 934.4-403.2 12.8-12.8 32-12.8 44.8 0 12.8 12.8 12.8 32 0 44.8C780.8 320 416 480 32 480z" p-id="6485" fill="#707070"></path><path d="M992 192C972.8 192 960 179.2 960 160L960 64l-96 0C844.8 64 832 51.2 832 32S844.8 0 864 0l128 0C1011.2 0 1024 12.8 1024 32l0 128C1024 179.2 1011.2 192 992 192z" p-id="6486" fill="#707070"></path></svg>