<svg viewBox="180 180 700 700" xmlns="http://www.w3.org/2000/svg"  width="128" height="128" ><path d="M741.038909 305.626387L659.500414 224.090963c-11.373001-11.372234-29.391256-11.372234-39.817019 0L501.16806 342.603994c-11.37991 11.376072-11.37991 29.391256 0 39.82316l32.23374 32.23374-16.11994 16.116869-10.425764-10.431904c-15.169631-15.166561-35.079292-21.807976-54.042482-21.807976-25.597697-20.860738-58.779442-23.70322-77.744936-4.740798-18.965493 18.962423-16.11687 52.144168 4.740798 77.745704 0 19.912732 6.638345 38.872084 21.807976 54.041715l10.431904 10.425763-16.11994 16.116869-32.233739-32.233739c-11.379142-11.376072-29.391256-11.376072-39.82009 0L205.362555 638.406429c-11.379142 11.376072-11.379142 29.391256 0 39.822393L286.90105 759.764246c11.376072 11.379142 29.394327 11.379142 39.82009 0l118.512264-118.512264c11.37991-11.370699 11.37991-29.392024 0-39.82009l-27.499083-27.493709 16.11994-16.11994 36.024228 36.033439c9.483898-21.811814 24.653529-43.61672 43.615952-62.576072 18.953211-18.959352 40.764258-34.126681 62.566861-43.612881l-36.024228-36.024228 16.11687-16.11994 27.492941 27.496012c11.376072 11.373769 29.394327 11.373769 39.82316 0l118.513032-118.512264c10.431904-10.431904 10.431904-28.444018-0.944168-38.875922z m0 0"></path><path d="M713.545967 510.421013c-1.898315-1.898315-4.740798-3.792792-6.636041-4.740797 0 0-0.947238 0-0.947239-0.947238-1.898315-0.950309-2.845553-1.898315-4.740797-2.842483h-0.95338c-46.456132-25.601535-118.509961-7.586351-171.604438 45.508126-54.041715 54.040948-71.112732 125.154447-45.511196 171.609811 0.944168 1.895244 1.898315 2.84018 2.842483 4.740797 0 0 0 0.944936 0.947238 0.944936 1.901385 2.845553 3.793559 4.749241 4.740798 6.638345 19.910429 13.274387 64.470549-3.792792 111.876989-41.719173l-23.70322-18.959352c-28.444018 22.750609-51.193091 35.07699-57.835274 29.391256-8.530519-8.533589 19.910429-51.195394 63.52331-94.809043 43.612882-43.610579 86.273151-72.054597 94.809811-63.517937 5.688036 5.685733-4.743868 25.598465-24.653529 51.190788l18.962423 23.703221c36.038813-45.513499 52.15645-87.225763 38.882062-106.191257z m0 0" ></path><path d="M599.776804 637.467634c-7.586351-5.694177-7.586351-16.12301-0.950309-22.756749l2.842483-2.842483c6.632972-6.635274 17.067178-5.691106 22.749841 0.948006l25.603838 31.285733c5.691106 7.586351 5.691106 18.96319-0.947238 25.604606l8.533589-8.53666c-6.636042 6.637577-18.012114 7.58328-25.603838 0.953379l-32.228366-24.655832z m0 0" ></path><path d="M661.134669 650.246909c-12.0723 0-22.119628 10.051934-22.794363 21.457175 0 12.069997 9.382573 21.454873 22.794363 21.454873 12.069229 0 22.791292-9.385643 22.791292-21.454873-0.659382-12.743196-10.722063-21.457175-22.791292-21.457175z m0 0" ></path><path d="M824.983881 745.474303l-25.771946-17.523143c0-3.093493 1.031676-6.186219 1.031676-11.339994 0-4.122867 0-7.217127-1.031676-11.339994l23.709361-18.554818c2.063352-2.062585 2.063352-4.122867 1.031676-6.185451l-22.680756-38.141314c0-1.031676-2.060282-2.062585-6.183148-1.031676l-27.835298 11.339994c-5.154543-4.125937-12.3686-7.217127-18.554819-11.339994l-4.122867-28.863904c1.028606-3.094261-2.063352-5.154543-4.125937-5.154543h-44.326764c-2.060282 0-5.154543 2.060282-5.154543 4.122867l-5.154543 29.894812c-6.183148 2.060282-12.3686 6.186219-18.554818 11.339994l-27.835299-11.339994c-3.09119-1.030909-5.151472 0-8.245733 2.060282l-21.649079 38.143616c-1.028606 1.031676 0 4.122867 2.063352 6.186219l23.709361 17.523143c0 3.094261-1.028606 6.186987-1.028605 11.339994 0 4.123634 0 7.217127 1.028605 11.339994l-23.709361 18.554818c-2.063352 2.063352-2.063352 4.122867-1.031676 6.186219l22.680756 38.141314c1.031676 1.032444 3.09119 2.063352 6.183148 1.032443l27.835298-11.340761c5.154543 4.122867 12.37167 7.217127 18.554819 11.340761l4.122867 28.863137c0 2.063352 2.063352 4.122867 5.154542 4.122866h44.329835c2.060282 0 5.154543-2.059514 5.154543-4.122866l4.122867-28.863137c6.186219-3.091958 13.400276-6.186987 18.554818-11.340761l27.835299 11.340761c2.060282 1.030909 5.154543 0 6.183148-2.063352l22.680756-38.140546c4.122099-2.06412 4.122099-5.15531 1.030141-6.186986z m-107.211419 10.309085c-20.617403 0-39.172222-17.522375-39.172222-38.141313 0-20.617403 17.523142-38.143616 39.172222-38.143616s39.172222 17.526213 39.172222 38.143616c0.000768 20.618939-18.554051 38.141313-39.172222 38.141313z m0 0" ></path></svg>
