<svg t="1587035048203" class="icon" viewBox="0 0 1024 1024" version="1.1" xmlns="http://www.w3.org/2000/svg"  width="200" height="200"><defs><style type="text/css"></style></defs><path d="M941.6 512c-97.7792-132.1344-253.4528-217.6-428.8-217.6-175.3472 0-331.0144 85.4656-428.8 217.6 97.7856 132.128 253.4528 217.6 428.8 217.6 175.3472 0 331.0208-85.472 428.8-217.6z m-428.8 174.0736C363.3472 686.0736 229.44 618.5792 139.008 512c90.432-106.5856 224.3392-174.08 373.792-174.08S796.16 405.4144 886.592 512c-90.432 106.5792-224.3392 174.0736-373.792 174.0736z" ></path><path d="M516.4032 396.9984c-63.6224 0-115.2 51.5776-115.2 115.2 0 63.616 51.5776 115.2 115.2 115.2s115.2-51.584 115.2-115.2c0-63.6224-51.5776-115.2-115.2-115.2z m0 179.2c-35.3472 0-64-28.6592-64-64 0-35.3472 28.6528-64 64-64 35.3408 0 64 28.6528 64 64s-28.6592 64-64 64zM115.2 921.6v-204.6016h-51.2V947.2c0 42.4128 34.3872 76.8 76.8 76.8h170.8032v-51.2H166.4a51.2 51.2 0 0 1-51.2-51.2zM883.2 0H140.8c-42.4128 0-76.8 34.3808-76.8 76.8v230.5984h51.2V102.4a51.2 51.2 0 0 1 51.2-51.2h145.2032V0.1984h409.6V51.2H857.6a51.2 51.2 0 0 1 51.2 51.2v204.9984h51.2V76.8c0-42.4192-34.3872-76.8-76.8-76.8zM908.8 921.6a51.2 51.2 0 0 1-51.2 51.2h-136.4032v51.2H883.2c42.4128 0 76.8-34.3872 76.8-76.8v-230.2016h-51.2V921.6z" ></path></svg>
