<svg  viewBox="0 0 1024 1024" version="1.1" xmlns="http://www.w3.org/2000/svg" width="300" height="300"><path d="M984.550523 512.325411 545.79878 104.540961c-10.150174-9.431813-23.035646-14.148231-35.919071-14.148231-12.886495 0-25.771967 4.716418-35.922141 14.148231L35.20685 512.325411l77.470419 0 25.263383-23.479761 0 445.412442 17.028838 0 35.712363 0L825.228911 934.258093l51.91744 0 0.823761 0L877.970112 485.269195l29.109991 27.056216L984.550523 512.325411zM825.228911 881.515868 190.681854 881.515868 190.681854 439.82826l319.211159-296.673863 0 0.019443L825.228911 436.251805 825.228911 881.515868z" ></path><path d="M326.07038 617.808838l52.741201 0 0 210.965829-52.741201 0 0-210.965829Z"></path><path d="M484.295008 670.550039l52.741201 0 0 158.224628-52.741201 0 0-158.224628Z"></path><path d="M642.519636 565.066613l52.741201 0 0 263.708054-52.741201 0 0-263.708054Z" ></path><path d="M311.433008 490.38368 340.688309 534.26612 474.060923 445.342858 526.803147 550.82526 709.904349 428.783717 680.649048 384.901277 547.249829 473.824539 494.508627 368.342136Z"></path></svg>
