<svg  viewBox="0 0 1024 1024" version="1.1" xmlns="http://www.w3.org/2000/svg" p-id="1167" width="300" height="300" ><path d="M392.476444 242.062222L286.833778 495.274667a28.444444 28.444444 0 0 1-26.225778 17.464889H141.994667a28.444444 28.444444 0 0 1 0-56.888889h99.669333l130.332444-312.376889a28.444444 28.444444 0 0 1 53.703112 3.527111l174.193777 642.616889 131.640889-316.245334a28.558222 28.558222 0 0 1 26.282667-17.521777h121.969778a28.444444 28.444444 0 0 1 0 56.888889h-102.968889l-156.330667 375.466666a28.444444 28.444444 0 0 1-53.703111-3.470222L392.476444 242.062222z" ></path></svg>
