<svg t="1587088629356"  viewBox="0 0 1024 1024" version="1.1" xmlns="http://www.w3.org/2000/svg" width="128" height="128"><path d="M921.6 876.608H102.4c-57.6 0-102.4-48.704-102.4-111.36V111.36C0 55.68 44.8 0 102.4 0h819.2c57.6 0 102.4 48.64 102.4 111.36v653.952c0 62.592-44.8 111.296-102.4 111.296zM102.4 76.544c-19.2 0-32 13.888-32 34.752v654.016c0 20.864 12.8 34.752 32 34.752h819.2c19.2 0 32-13.888 32-34.752V111.296c0-20.864-12.8-34.752-32-34.752H102.4z" ></path><path d="M0 960m32 0l960 0q32 0 32 32l0 0q0 32-32 32l-960 0q-32 0-32-32l0 0q0-32 32-32Z" ></path><path d="M729.408 448c0-25.6 11.712-48.64 30.336-64.64a22.848 22.848 0 0 0 4.992-29.248l-41.6-68.736a24.448 24.448 0 0 0-28.096-10.432c-8.896 2.688-18.432 4.16-28.288 4.16-44.16 0-81.152-29.44-90.048-68.8A23.936 23.936 0 0 0 553.216 192H470.784c-11.328 0-21.12 7.68-23.488 18.304-8.96 39.36-45.824 68.8-90.048 68.8-9.856 0-19.392-1.472-28.288-4.16a24.448 24.448 0 0 0-28.16 10.432l-41.536 68.736a22.848 22.848 0 0 0 4.992 29.312c18.56 15.936 30.336 38.976 30.336 64.576 0 25.6-11.712 48.64-30.336 64.64a22.848 22.848 0 0 0-4.992 29.248l41.6 68.736c5.632 9.472 17.28 13.76 28.096 10.432 8.896-2.688 18.432-4.16 28.288-4.16 44.16 0 81.152 29.44 90.048 68.8 2.432 10.688 12.16 18.304 23.488 18.304h82.432c11.328 0 21.12-7.68 23.488-18.304 8.96-39.36 45.824-68.8 90.048-68.8 9.856 0 19.392 1.472 28.288 4.16a24.448 24.448 0 0 0 28.16-10.432l41.536-68.736a22.848 22.848 0 0 0-4.992-29.312c-18.56-15.936-30.336-38.976-30.336-64.576z m-33.472 135.488a136.128 136.128 0 0 0-79.36 6.4 129.92 129.92 0 0 0-41.216 26.304 123.136 123.136 0 0 0-32.64 51.2h-61.44a123.136 123.136 0 0 0-32.576-51.2 129.856 129.856 0 0 0-41.28-26.24 134.528 134.528 0 0 0-79.36-6.464l-30.784-51.008a119.232 119.232 0 0 0 0-168.96l30.784-51.008a136.128 136.128 0 0 0 79.36-6.4c15.488-6.208 29.312-15.04 41.216-26.304a123.136 123.136 0 0 0 32.64-51.2h61.44a123.136 123.136 0 0 0 32.576 51.2 134.528 134.528 0 0 0 120.576 32.768l30.848 50.944a119.232 119.232 0 0 0 0 168.96l-30.784 51.008z" ></path><path d="M512 384a64 64 0 1 0 0 128 64 64 0 0 0 0-128z" ></path></svg>
