<svg t="1587039780148" class="icon" viewBox="0 0 1662 1024" version="1.1" xmlns="http://www.w3.org/2000/svg" width="207.75" height="128"><path d="M859.76715 933.222295A441.039004 441.039004 0 1 1 858.424663 51.272143a441.039004 441.039004 0 0 1 1.534271 882.078008h-0.191784z m-1.278559-827.867097a387.467373 387.467373 0 0 0-334.982517 580.465887 387.147733 387.147733 0 1 0 334.982517-580.465887z" ></path><path d="M859.76715 933.222295A441.039004 441.039004 0 1 1 858.424663 51.272143a441.039004 441.039004 0 0 1 1.534271 882.078008h-0.191784z m-1.278559-827.867097a387.467373 387.467373 0 0 0-334.982517 580.465887 387.147733 387.147733 0 1 0 334.982517-580.465887z" ></path><path d="M148.504654 986.218575c-62.777258 0-76.713553-23.653346-82.914566-35.543946-55.553398-95.572302 207.57409-300.461418 369.247904-414.125333l30.813277 43.790653c-294.132549 206.487315-366.179362 322.580492-353.969121 343.548864 5.9453 10.292402 64.822953 24.548337 251.492599-41.936743 159.436335-56.512318 359.914421-152.787827 564.483898-270.798843 204.569476-117.947088 388.042724-243.565532 516.921494-353.201986C1595.258343 129.008543 1612.454965 71.281595 1606.509664 61.053121c-11.826673-21.224083-148.760366-16.813054-474.665111 134.696214l-22.502643-48.457395C1288.595913 64.377375 1597.495822-61.304997 1652.857436 34.395161c75.179282 130.285185-423.970239 464.564494-698.924399 623.105838-206.806954 119.545287-410.417511 217.227212-572.986316 275.018089-114.303195 40.658183-186.477863 53.699487-232.442067 53.699487z" ></path></svg>
