<svg t="1587040940278" class="icon" viewBox="0 0 1024 1024" version="1.1" xmlns="http://www.w3.org/2000/svg"  width="128" height="128"><path d="M188.485818 859.671273c-27.066182 0-49.012364-21.922909-49.012364-48.989091L139.473455 211.525818c0-27.066182 21.946182-48.989091 49.012364-48.989091l460.660364 0C676.235636 162.513455 698.181818 184.459636 698.181818 211.525818l0 206.196364c18.152727-3.188364 36.747636-5.189818 55.901091-5.189818 12.683636 0 25.181091 0.930909 37.515636 2.350545L791.598545 118.597818c0-27.066182-21.922909-48.989091-48.989091-48.989091L95.557818 69.608727C68.491636 69.585455 46.545455 91.531636 46.545455 118.597818L46.545455 904.145455c0 27.042909 21.946182 48.989091 49.012364 48.989091l422.493091 0c-24.413091-27.345455-44.427636-58.763636-58.484364-93.463273L188.485818 859.671273zM639.744 625.338182l-49.361455 49.384727 89.553455 89.530182-0.977455 0.977455 49.361455 49.361455 0.977455-0.977455 0.977455 0.977455 49.361455-49.361455-0.977455-0.977455 229.515636-229.515636-49.361455-49.361455-229.515636 229.515636L639.744 625.338182zM442.181818 500.363636c0-19.293091-15.639273-34.909091-34.909091-34.909091l-139.636364 0c-19.293091 0-34.909091 15.616-34.909091 34.909091 0 19.269818 15.616 34.909091 34.909091 34.909091l139.636364 0C426.542545 535.272727 442.181818 519.633455 442.181818 500.363636zM879.941818 734.068364c-12.567273 83.037091-84.061091 146.781091-170.612364 146.781091-95.418182 0-172.776727-77.358545-172.776727-172.776727s77.358545-172.776727 172.776727-172.776727c36.375273 0 70.050909 11.287273 97.885091 30.487273l51.525818-51.525818c-41.378909-31.953455-93.114182-51.153455-149.457455-51.153455-135.307636 0-245.015273 109.707636-245.015273 245.015273s109.707636 245.015273 245.015273 245.015273 245.038545-109.707636 245.038545-245.015273c0-15.127273-1.559273-29.858909-4.212364-44.218182L879.941818 734.068364zM605.090909 314.181818c0-19.293091-15.639273-34.909091-34.909091-34.909091l-302.545455 0c-19.293091 0-34.909091 15.616-34.909091 34.909091 0 19.269818 15.616 34.909091 34.909091 34.909091l302.545455 0C589.451636 349.090909 605.090909 333.451636 605.090909 314.181818zM267.636364 628.363636c-19.293091 0-34.909091 15.616-34.909091 34.909091 0 19.269818 15.616 34.885818 34.909091 34.885818l93.090909 0c19.269818 0 34.909091-15.616 34.909091-34.885818 0-19.293091-15.639273-34.909091-34.909091-34.909091L267.636364 628.363636z" ></path></svg>
