<svg t="1587041156043" class="icon" viewBox="0 0 1024 1024" version="1.1" xmlns="http://www.w3.org/2000/svg"  width="128" height="128"><defs><style type="text/css"></style></defs><path d="M116.363636 186.181818a69.818182 69.818182 0 1 0 0-139.636363 69.818182 69.818182 0 0 0 0 139.636363z m0 46.545455a116.363636 116.363636 0 1 1 0-232.727273 116.363636 116.363636 0 0 1 0 232.727273zM116.363636 977.454545a69.818182 69.818182 0 1 0 0-139.636363 69.818182 69.818182 0 0 0 0 139.636363z m0 46.545455a116.363636 116.363636 0 1 1 0-232.727273 116.363636 116.363636 0 0 1 0 232.727273zM907.636364 605.090909a69.818182 69.818182 0 1 0 0-139.636364 69.818182 69.818182 0 0 0 0 139.636364z m0 46.545455a116.363636 116.363636 0 1 1 0-232.727273 116.363636 116.363636 0 0 1 0 232.727273z"></path><path d="M302.545455 93.090909h698.181818a23.272727 23.272727 0 1 1 0 46.545455h-698.181818a23.272727 23.272727 0 0 1 0-46.545455z m0 791.272727h698.181818a23.272727 23.272727 0 1 1 0 46.545455h-698.181818a23.272727 23.272727 0 1 1 0-46.545455z m-279.272728-372.363636h698.181818a23.272727 23.272727 0 1 1 0 46.545455H23.272727a23.272727 23.272727 0 1 1 0-46.545455z" ></path></svg>
