<svg t="1587034961270" class="icon" viewBox="0 0 1126 1024" version="1.1" xmlns="http://www.w3.org/2000/svg"  width="219.921875" height="200"><path d="M936.134 300.38c0.29 0.778 0.705 1.502 0.922 2.315 5.1 18.013-6.185 36.55-25.192 41.379l-344.192 87.458c-10.96 2.785-21.99 0.29-30.437-5.66-6.094 1.663-12.677 1.953-19.242 0.27l-348.876-88.977c-15.082-3.852-25.047-16.258-26.331-30.256-0.09-0.325-0.253-0.597-0.344-0.922-5.172-19.297 6.276-39.136 25.572-44.308l349.382-93.608c6.565-1.772 13.166-1.464 19.279 0.29 8.446-6.276 19.495-8.88 30.455-5.968l344.698 92.034c19.043 5.064 30.328 24.56 25.228 43.53-0.217 0.85-0.632 1.61-0.922 2.424z m-386.836-69.138a35.85 35.85 0 0 1-13.184 6.71l-232.59 62.32 233.15 59.463c4.974 1.266 9.35 3.509 13.13 6.366l258.56-65.702-259.066-69.157zM156.874 475.515l59.915-59.934c11.303-11.303 31.92-9.006 46.044 5.118 14.125 14.125 16.403 34.741 5.118 46.045l-18.645 18.627 287.369 73.298c4.973 1.266 9.35 3.509 13.13 6.366l287.748-73.117-19.206-19.062c-11.339-11.285-9.042-31.865 5.154-45.954 14.179-14.106 34.886-16.403 46.243-5.118l61.652 61.272c6.366 6.33 7.993 15.59 6.095 24.975 1.139 15.788-8.898 30.727-25.627 34.977l-344.192 87.458c-10.96 2.785-21.99 0.29-30.437-5.66-6.094 1.663-12.677 1.953-19.242 0.27L169.117 536.1c-19.278-4.919-30.708-23.763-25.554-42.102 2.189-7.74 7.053-14.033 13.31-18.482z m-0.018 198.934l59.933-59.934c11.303-11.303 31.92-9.006 46.044 5.118 14.125 14.125 16.403 34.741 5.118 46.044l-18.645 18.628 287.369 73.298c19.278 4.901 30.708 23.764 25.554 42.102-5.172 18.338-24.975 29.225-44.236 24.306l-348.876-88.978c-19.278-4.92-30.708-23.764-25.554-42.102 2.189-7.74 7.053-14.015 13.293-18.482z" ></path><path d="M714.992 765.56c5.172 19.297-3.671 38.43-19.749 42.735l-116.466 31.196c-16.078 4.323-33.295-7.83-38.467-27.127-5.172-19.297 3.671-38.43 19.749-42.735l116.466-31.214c16.078-4.304 33.295 7.849 38.467 27.145z"  ></path></svg>
