<svg  viewBox="0 0 1024 1024" version="1.1" xmlns="http://www.w3.org/2000/svg" width="300" height="300"><path d="M864 576a32 32 0 0 0-32 32V896H128V608a32 32 0 0 0-64 0V896a64 64 0 0 0 64 64h704a64 64 0 0 0 64-64V608a32 32 0 0 0-32-32z"></path><path d="M448 64m32 0l0 0q32 0 32 32l0 704q0 32-32 32l0 0q-32 0-32-32l0-704q0-32 32-32Z"></path><path d="M480.512 832a32 32 0 0 1-22.592-9.344l-128.512-128a32 32 0 0 1 45.184-45.312l128.512 128a32 32 0 0 1-22.592 54.656z"></path><path d="M480.512 832a32 32 0 0 1-22.528-54.656l128.576-128a32 32 0 1 1 45.12 45.312l-128.576 128a31.616 31.616 0 0 1-22.592 9.344zM224.512 576a32 32 0 0 1-22.592-9.344l-128.512-128a32 32 0 0 1 45.184-45.312l128.512 128A32 32 0 0 1 224.512 576z" ></path><path d="M224.512 576a32 32 0 0 1-22.528-54.656l128.576-128a32 32 0 1 1 45.12 45.312l-128.576 128A31.616 31.616 0 0 1 224.512 576z" ></path><path d="M224 576a32 32 0 0 1-32-32 857.152 857.152 0 0 0-122.624-430.272 32 32 0 0 1 53.248-35.456A910.272 910.272 0 0 1 256 544a32 32 0 0 1-32 32zM736.512 576a32 32 0 0 1-22.528-54.656l128.576-128a32 32 0 1 1 45.12 45.312l-128.576 128a31.616 31.616 0 0 1-22.592 9.344z" ></path><path d="M736.512 576a32 32 0 0 1-22.592-9.344l-128.512-128a32 32 0 0 1 45.184-45.312l128.512 128a32 32 0 0 1-22.592 54.656z" ></path><path d="M737.088 576a32 32 0 0 1-32-32A910.272 910.272 0 0 1 838.4 78.272a32 32 0 0 1 53.312 35.456A860.224 860.224 0 0 0 769.088 544a32 32 0 0 1-32 32z" ></path></svg>
