<svg  viewBox="0 0 1024 1024" version="1.1" xmlns="http://www.w3.org/2000/svg" width="300" height="300"><defs><style type="text/css"></style></defs><path d="M402.56 495.936H165.6v47.168h212.288c6.848-16.48 15.136-32.32 24.672-47.168z m-236.96 141.568v47.136h189.664a318.432 318.432 0 0 1 0-47.104H165.6v-0.032z m253.696 212.352H94.816a47.264 47.264 0 0 1-47.2-47.2V94.816c0-26.016 21.152-47.2 47.2-47.2h424.64v212.32a94.4 94.4 0 0 0 94.4 94.368h188.704v34.592a298.912 298.912 0 0 1 47.2 30.368v-88.544l-8.288-8.32 1.408-8.32-291.2-313.664H94.816A94.4 94.4 0 0 0 0.448 94.784v707.84a94.432 94.432 0 0 0 94.368 94.368h370.272a309.664 309.664 0 0 1-45.792-47.136z m147.36-763.008l206.56 220.32h-159.36c-26.048 0-47.2-21.12-47.2-47.2v-173.12zM165.6 401.504h235.968v-47.168H165.6v47.168z m851.008 581.76l-122.784-122.752a306.88 306.88 0 0 1-33.408 33.312l122.816 122.88a23.68 23.68 0 0 0 33.376-33.44z m-355.584-581.76c-143.328 0-259.488 116.192-259.488 259.552s116.16 259.488 259.488 259.488a259.52 259.52 0 1 0 0-519.04z m0 471.872a212.32 212.32 0 1 1 0.096-424.64 212.32 212.32 0 0 1-0.096 424.64zM401.536 212.768H165.6v47.2h235.968V212.768h-0.032z m94.368 448.288c0 8.064 0.768 15.936 1.824 23.552h186.848v-47.136h-186.848a172.896 172.896 0 0 0-1.824 23.584z m49.664-117.952h139.04v-45.28a162.432 162.432 0 0 0-23.552-1.888 164.544 164.544 0 0 0-115.488 47.168z" ></path></svg>
