<svg t="1587041877837" class="icon" viewBox="0 0 1024 1024" version="1.1" xmlns="http://www.w3.org/2000/svg"  width="128" height="128"><path d="M365.714286 716.8l-204.8 204.8c-14.628571 14.628571-36.571429 14.628571-51.2 0-14.628571-14.628571-14.628571-36.571429 0-51.2l204.8-204.8L29.257143 380.342857c-29.257143-29.257143-29.257143-73.142857 0-102.4 7.314286-7.314286 21.942857-14.628571 29.257143-21.942857L899.657143 29.257143c36.571429-7.314286 80.457143 14.628571 87.771428 51.2v36.571428L753.371429 950.857143c-14.628571 36.571429-51.2 58.514286-87.771429 51.2-14.628571 0-21.942857-7.314286-29.257143-21.942857L365.714286 716.8z m533.942857-533.942857L416.914286 665.6l263.314285 263.314286 219.428572-746.057143zM358.4 614.4l482.742857-490.057143L80.457143 329.142857l277.942857 285.257143z"></path></svg>
