<svg viewBox="0 0 1024 1024" version="1.1" xmlns="http://www.w3.org/2000/svg"  width="300" height="300"><path d="M960 512c0 247.424-200.544 448-448 448S64 759.424 64 512 264.544 64 512 64s448 200.576 448 448z m-32 0c0-229.76-186.272-416-416-416S96 282.24 96 512s186.272 416 416 416 416-186.24 416-416z m-416 256c-23.328 0-42.208-19.296-42.208-43.072s18.88-43.072 42.208-43.072 42.208 19.296 42.208 43.072S535.328 768 512 768z m0-140.704c-15.456 0-28-25.568-28-57.12l-28-257.056C456 281.568 481.056 256 512 256s56 25.568 56 57.12l-28 257.024c0 31.584-12.544 57.152-28 57.152z" ></path></svg>
